<?xml version="1.0" encoding="utf-8"?>
<!-- Generator: Adobe Illustrator 21.0.0, SVG Export Plug-In . SVG Version: 6.00 Build 0)  -->
<svg version="1.1" id="Layer_1" xmlns="http://www.w3.org/2000/svg" xmlns:xlink="http://www.w3.org/1999/xlink" x="0px" y="0px"
	 viewBox="0 0 200 200" style="enable-background:new 0 0 200 200;" xml:space="preserve">
<style type="text/css">
	.st0{fill:#7B7B7B;}
</style>
<g>
	<path class="st0" d="M100,5c13,0,25.4,2.5,37,7.4c11.6,4.9,21.7,11.8,30.2,20.4c8.6,8.6,15.4,18.6,20.4,30.2s7.4,24,7.4,37
		s-2.5,25.4-7.4,36.9s-11.8,21.6-20.4,30.2c-8.6,8.7-18.6,15.5-30.2,20.4c-11.6,4.9-24,7.4-37,7.4s-25.4-2.5-36.9-7.4
		s-21.6-11.8-30.2-20.4s-15.5-18.7-20.4-30.2S5,113.1,5,100c0-13,2.5-25.4,7.4-37c4.9-11.5,11.8-21.6,20.4-30.2
		c8.7-8.6,18.7-15.4,30.2-20.4C74.7,7.5,87,5,100,5z M122.3,83.2H107v-9.7c0-1.9,0.5-3.2,1.4-3.8c1-0.6,1.9-0.9,2.9-0.9H122V52.4
		h-14.6c-4.1,0-7.4,0.7-10.1,2.1c-2.7,1.3-4.7,3-6.2,5.1c-1.4,2.1-2.5,4.2-2.9,6.5c-0.5,2.3-0.8,4.4-0.8,6.3v10.8H78v16.9h9.3v47.4
		h19.6v-47.4h13.5L122.3,83.2z"/>
</g>
</svg>
