<?xml version="1.0" encoding="utf-8"?>
<!-- Generator: Adobe Illustrator 21.0.0, SVG Export Plug-In . SVG Version: 6.00 Build 0)  -->
<svg version="1.1" id="Layer_1" xmlns="http://www.w3.org/2000/svg" xmlns:xlink="http://www.w3.org/1999/xlink" x="0px" y="0px"
	 viewBox="0 0 200 200" style="enable-background:new 0 0 200 200;" xml:space="preserve">
<style type="text/css">
	.st0{fill:#FFFFFF;}
</style>
<g>
	<path class="st0" d="M123.6,63.9c-15.6-1.7-31.2-1.7-46.9,0c-6.3,0.7-12,6.4-12.7,12.7c-1.7,15.5-1.7,31.1,0,46.6
		c0.7,6.5,6.4,12.2,12.8,12.8c7.7,0.7,15.4,1,23.3,1.5c7.8-0.5,15.7-0.8,23.5-1.5c6.1-0.6,11.9-6.4,12.5-12.5
		c1.7-15.6,1.7-31.2,0-46.9C135.6,70.3,129.9,64.6,123.6,63.9z M99.8,122.8c-12.1-0.2-22.6-10.6-22.4-23.2
		c0.2-12,10.6-22.6,23.3-22.4c12,0.2,22.9,10.6,22.2,23.1C123.3,112.4,112.3,123,99.8,122.8z M124.1,81c-2.9,0-5-2.2-4.9-5.1
		c0.1-2.8,2.1-4.8,4.9-4.9c2.9,0,5,2.1,5,5C129.2,78.9,127.1,81,124.1,81z"/>
	<path class="st0" d="M100.3,84.9c-8.4,0-15.1,6.7-15.2,14.9c0,8.5,6.7,15.2,15.1,15.2c8.3,0,15-6.7,15-15.1
		C115.3,91.7,108.6,84.9,100.3,84.9z"/>
	<path class="st0" d="M192.1,61.1c-5.2-12.2-12.4-22.8-21.4-31.8s-19.6-16.2-31.8-21.4c-12.2-5.2-25.2-7.8-38.9-7.8
		c-13.7,0-26.6,2.6-38.8,7.8c-12.1,5.2-22.7,12.4-31.8,21.4C20.3,38.4,13.1,49,7.9,61.1C2.7,73.3,0.1,86.3,0.1,100
		c0,13.8,2.6,26.7,7.8,38.8c5.2,12.1,12.4,22.7,21.5,31.8c9.1,9.1,19.7,16.3,31.8,21.5c12.1,5.2,25.1,7.8,38.8,7.8
		s26.7-2.6,38.9-7.8c12.2-5.2,22.8-12.4,31.8-21.5c9-9.1,16.2-19.7,21.4-31.8c5.2-12.1,7.8-25.1,7.8-38.8S197.3,73.3,192.1,61.1z
		 M144.6,120.1c-0.2,7.7-3.2,14.6-9.7,19.4c-4.4,3.3-9.6,4.7-14.9,5c-6.6,0.3-13.2,0.1-19.7,0.1c-6.6,0-13.2,0.3-19.7-0.1
		c-7.8-0.5-15-3-19.6-9.7c-1.9-2.7-2.9-6.1-4.2-9.2c-2.1-5.3-1.4-11-1.4-16.5c-0.1-9.5-0.3-19,0.2-28.5c0.3-5.5,2-10.8,5.3-15.3
		c4.7-6.3,11.3-9.3,18.7-9.5c13.7-0.4,27.5-0.4,41.2,0c7.5,0.2,14.2,3.2,19,9.6c3.2,4.4,4.9,9.4,5,14.7
		C144.9,93.3,145,106.7,144.6,120.1z"/>
</g>
</svg>
