<?xml version="1.0" encoding="utf-8"?>
<!-- Generator: Adobe Illustrator 21.0.0, SVG Export Plug-In . SVG Version: 6.00 Build 0)  -->
<svg version="1.1" id="Layer_1" xmlns="http://www.w3.org/2000/svg" xmlns:xlink="http://www.w3.org/1999/xlink" x="0px" y="0px"
	 viewBox="0 0 200 200" style="enable-background:new 0 0 200 200;" xml:space="preserve">
<style type="text/css">
	.st0{fill:#7B7B7B;}
</style>
<path class="st0" d="M191.5,61c-5.2-12.2-12.4-22.8-21.4-31.8S150.5,13,138.3,7.8C126.2,2.6,113.2,0,99.5,0S72.8,2.6,60.7,7.8
	C48.5,13,38,20.2,28.8,29.2c-9,9.1-16.3,19.7-21.5,31.8C2.2,73.2-0.5,86.2-0.5,99.9c0,13.8,2.6,26.7,7.8,38.8
	c5.2,12.1,12.4,22.7,21.5,31.8s19.7,16.3,31.8,21.5s25.1,7.8,38.8,7.8s26.7-2.6,38.9-7.8s22.8-12.4,31.8-21.5s16.2-19.7,21.4-31.8
	s7.8-25.1,7.8-38.8C199.3,86.2,196.8,73.2,191.5,61z M147.4,68.2l-48,40.8l-48-40.8H147.4z M47.9,70.6l36,30.6l-36,28.2V70.6z
	 M51.8,131.6l35.3-27.7l12.3,10.5l12.3-10.5l35.3,27.7H51.8z M151,129.4l-36-28.2l36-30.6V129.4z"/>
</svg>
